<svg width="29" height="30" viewBox="0 0 29 30" fill="none" xmlns="http://www.w3.org/2000/svg">
<path d="M26.5867 0.937256H8.58667C8.13912 0.937256 7.70989 1.11505 7.39343 1.43151C7.07696 1.74798 6.89917 2.1772 6.89917 2.62476V7.68726H1.83667C1.38912 7.68726 0.959895 7.86505 0.643427 8.18151C0.32696 8.49798 0.14917 8.9272 0.14917 9.37476V27.3748C0.14917 27.8223 0.32696 28.2515 0.643427 28.568C0.959895 28.8845 1.38912 29.0623 1.83667 29.0623H19.8367C20.2842 29.0623 20.7134 28.8845 21.0299 28.568C21.3464 28.2515 21.5242 27.8223 21.5242 27.3748V22.3123H26.5867C27.0342 22.3123 27.4634 22.1345 27.7799 21.818C28.0964 21.5015 28.2742 21.0723 28.2742 20.6248V2.62476C28.2742 2.1772 28.0964 1.74798 27.7799 1.43151C27.4634 1.11505 27.0342 0.937256 26.5867 0.937256ZM18.1492 25.6873H3.52417V11.0623H18.1492V25.6873ZM24.8992 18.9373H21.5242V9.37476C21.5242 8.9272 21.3464 8.49798 21.0299 8.18151C20.7134 7.86505 20.2842 7.68726 19.8367 7.68726H10.2742V4.31226H24.8992V18.9373Z" fill="white"/>
</svg>
