<svg width="50" height="60" viewBox="0 0 50 60" fill="none" xmlns="http://www.w3.org/2000/svg">
<path fill-rule="evenodd" clip-rule="evenodd" d="M19.5673 0.659994C17.6003 1.20943 14.7859 2.57882 13.3133 3.70138C10.5142 5.83723 8.65802 6.27204 7.85946 4.97983C6.91495 3.45073 5.89479 4.2149 6.74913 5.81125C8.33401 8.77239 12.9106 13.294 16.8927 15.8318C20.3246 18.0181 21.4746 18.3444 25.5515 18.2817C29.6848 18.219 30.7004 17.8805 33.9573 15.4803C38.0471 12.4671 40.9853 9.49453 42.9714 6.36145L44.2751 4.30354L41.9497 5.18157C39.9186 5.94803 39.4028 5.85098 37.8683 4.40976C33.8679 0.651588 25.6325 -1.03646 19.5673 0.659994ZM5.94675 13.5293C5.42482 14.9216 4.74624 21.0464 4.43905 27.1407C3.98972 36.0593 3.50218 39.2986 1.94022 43.7453L0 49.2694L3.27522 46.5849L6.55044 43.9012L8.93617 47.7778L11.3211 51.6544L13.8651 49.7134C15.265 48.6466 16.5924 47.7732 16.8155 47.7732C17.0394 47.7732 18.8971 50.5242 20.9451 53.8865C22.9923 57.2489 24.8576 59.9999 25.0907 59.9999C25.323 59.9999 27.1761 57.2489 29.2088 53.8865C31.2415 50.5242 33.2688 47.7732 33.7135 47.7732C34.1575 47.7732 35.4635 48.6749 36.6143 49.7776L38.7066 51.7828L41.1206 47.8588L43.5346 43.9356L46.4392 46.2365C50.1057 49.1403 50.6162 49.1296 49.0901 46.1791C47.0842 42.2987 45.7133 34.1183 45.6987 25.9394C45.6903 20.8684 45.2616 16.9987 44.4424 14.5954L43.1999 10.9472L41.6303 12.5168C40.4191 13.7273 40.0989 14.9247 40.2281 17.7529C40.4267 22.1178 39.3752 23.8066 35.6599 25.0835C33.2856 25.8997 32.9975 26.2527 33.5301 27.6924C33.8687 28.6079 35.4444 30.0231 37.0323 30.8377L39.9186 32.3187L36.2773 34.5057C32.1118 37.0076 29.2607 41.8563 26.9636 50.3439C26.2086 53.1331 25.3795 55.4149 25.1212 55.4149C24.8629 55.4149 24.0101 53.172 23.2246 50.431C20.6608 41.4795 17.9029 36.5927 14.4076 34.8091C12.6974 33.9364 11.2982 32.8949 11.2982 32.4937C11.2982 32.0933 12.3199 31.2366 13.5678 30.5909C15.4881 29.5982 17.4116 27.3707 17.4116 26.1404C17.4116 25.9547 16.3906 25.5994 15.1427 25.3495C13.8949 25.1004 12.1327 24.1543 11.2271 23.2488C9.84477 21.8664 9.64914 21.0159 10.0098 17.9646C10.3812 14.8345 10.194 14.0971 8.66795 12.6635L6.89585 10.9984L5.94675 13.5293ZM33.602 19.4914C30.6202 21.4522 30.4597 21.7067 31.92 22.1705C34.0032 22.8315 37.2799 20.7202 37.2799 18.7173C37.2799 17.8866 37.1943 17.2333 37.0889 17.2661C36.9834 17.299 35.4146 18.3 33.602 19.4914ZM12.8265 19.0994C12.8265 20.8042 16.292 22.7712 18.2177 22.1606C19.7369 21.6784 19.6376 21.4996 16.9179 19.8284C13.4493 17.6963 12.8265 17.5855 12.8265 19.0994ZM22.0523 23.0409C21.1644 24.1696 20.4682 26.1817 20.4682 27.6191C20.4682 29.3193 19.9746 30.4931 19.0033 31.0991C17.6072 31.971 17.6607 32.1552 20.1496 35.0636C21.5862 36.7417 22.7607 38.3541 22.7607 38.6475C22.7607 38.941 23.3056 40.4846 23.9712 42.0779L25.1816 44.9756L27.008 40.4517C28.0121 37.9643 29.7475 35.1331 30.864 34.1603L32.8943 32.3913L31.2667 31.2511C30.2182 30.5168 29.6382 29.291 29.6382 27.8116C29.6382 21.8106 25.2099 19.026 22.0523 23.0409Z" fill="#0E100A"/>
</svg>
