<svg width="50" height="43" viewBox="0 0 50 43" fill="none" xmlns="http://www.w3.org/2000/svg">
<path d="M33.3726 1.92799C28.9183 -0.630576 26.2871 0.43355 24.771 2.19362C23.5657 3.59284 23.4426 5.6078 24.0742 7.34317C26.4447 13.8552 33.4799 20.4639 36.9778 24.8783C40.965 29.9104 47.8028 30.2527 49.2241 25.1638C50.6453 20.0748 41.3391 6.50401 33.3726 1.92799Z" fill="#DC8DDE"/>
<path d="M3.28918 30.6079C-0.472283 26.4609 0.152233 23.4383 1.71998 21.464C2.86841 20.0177 4.79181 19.4611 6.62454 19.6883C13.9729 20.5996 22.5367 26.4841 27.9647 29.138C34.1017 32.1387 36.0119 39.1685 31.0453 41.8027C26.0787 44.4369 9.85678 37.8484 3.28918 30.6079Z" fill="#DC8DDE"/>
</svg>
