<svg width="73" height="60" viewBox="0 0 73 60" fill="none" xmlns="http://www.w3.org/2000/svg">
<path d="M68.5783 6.5322C65.7024 0.693259 62.1415 0.283191 59.3969 1.24462C57.654 1.85516 56.4308 3.41068 55.9368 5.19017C53.707 13.2234 56.3695 24.764 56.9053 31.5909C57.5031 39.2071 64.0289 44.0838 68.8103 40.0013C73.5917 35.9189 73.4086 16.3393 68.5783 6.5322Z" fill="#ACE1FF"/>
<path d="M33.5745 19.5242C29.1202 16.9656 26.489 18.0297 24.9729 19.7898C23.7676 21.189 23.6445 23.204 24.2761 24.9394C26.6466 31.4514 33.6818 38.0601 37.1797 42.4745C41.1669 47.5065 48.0047 47.8489 49.426 42.7599C50.8472 37.671 41.541 24.1002 33.5745 19.5242Z" fill="#ACE1FF"/>
<path d="M3.49109 48.204C-0.270379 44.0571 0.354137 41.0345 1.92188 39.0601C3.07032 37.6139 4.99372 37.0573 6.82645 37.2845C14.1748 38.1958 22.7386 44.0802 28.1666 46.7342C34.3036 49.7349 36.2138 56.7647 31.2472 59.3989C26.2806 62.0331 10.0587 55.4446 3.49109 48.204Z" fill="#ACE1FF"/>
</svg>
