<svg width="43" height="43" viewBox="0 0 43 43" fill="none" xmlns="http://www.w3.org/2000/svg">
<path d="M21.1053 1.15514C21.1835 0.496465 22.1393 0.496465 22.2175 1.15514L22.8732 6.6808C23.7198 13.8159 29.3453 19.4414 36.4803 20.288L42.006 20.9437C42.6648 21.0219 42.6648 21.9777 42.006 22.0559L36.4803 22.7115C29.3453 23.5582 23.7198 29.1837 22.8732 36.3187L22.2175 41.8444C22.1393 42.5031 21.1835 42.5031 21.1053 41.8444L20.4497 36.3187C19.6031 29.1837 13.9775 23.5582 6.84242 22.7115L1.31676 22.0559C0.658086 21.9777 0.658086 21.0219 1.31676 20.9437L6.84242 20.288C13.9775 19.4414 19.6031 13.8159 20.4497 6.6808L21.1053 1.15514Z" fill="white"/>
</svg>
