<svg width="44" height="35" viewBox="0 0 44 35" fill="none" xmlns="http://www.w3.org/2000/svg">
<path fill-rule="evenodd" clip-rule="evenodd" d="M14.4484 18.4326L26.4274 11.1149C26.8941 10.8335 27.4532 10.7482 27.9825 10.8777C28.5118 11.0072 28.9684 11.3408 29.2525 11.8059C29.5366 12.2709 29.6251 12.8294 29.4987 13.3595C29.3723 13.8896 29.0413 14.3481 28.5779 14.6349L18.1114 21.0286L26.8674 29.7874C27.2586 30.1787 27.742 30.4653 28.2731 30.6208C28.8041 30.7762 29.3657 30.7955 29.9062 30.6769C30.4467 30.5583 30.9486 30.3056 31.3657 29.942C31.7829 29.5785 32.1018 29.1158 32.2932 28.5966L39.6962 8.49963C39.8572 8.0651 39.9107 7.59809 39.8521 7.13841C39.7936 6.67873 39.6248 6.24003 39.3601 5.8597C39.0953 5.47937 38.7426 5.16869 38.3318 4.95416C37.9211 4.73962 37.4646 4.6276 37.0012 4.62763H36.7124C36.4374 4.62763 36.1597 4.66338 35.8929 4.73763L5.56045 12.8996C5.13833 13.0149 4.76742 13.2691 4.50772 13.6213C4.24802 13.9735 4.1147 14.4029 4.12933 14.8403C4.14396 15.2776 4.30568 15.6972 4.58834 16.0312C4.871 16.3652 5.25807 16.5941 5.68695 16.6809L14.4484 18.4326ZM4.87845 20.7261L13.7499 22.4999L23.9524 32.7024C24.8336 33.5817 25.9218 34.2253 27.1168 34.5741C28.3118 34.9229 29.5754 34.9656 30.7912 34.6984C32.007 34.4311 33.1362 33.8624 34.0748 33.0446C35.0133 32.2268 35.7312 31.1862 36.1624 30.0184L43.5682 9.92138C43.9594 8.86308 44.0888 7.72587 43.9454 6.60675C43.802 5.48762 43.39 4.41977 42.7447 3.49428C42.0993 2.5688 41.2397 1.81313 40.2391 1.29172C39.2386 0.770315 38.1267 0.498646 36.9984 0.499882H36.7124C36.0744 0.499882 35.4364 0.582382 34.8204 0.750132L4.48795 8.91763C3.16784 9.27512 2.00717 10.068 1.19411 11.1677C0.38104 12.2675 -0.0367581 13.6096 0.00844474 14.9765C0.0536476 16.3434 0.559201 17.655 1.44315 18.6986C2.32709 19.7422 3.53761 20.4566 4.87845 20.7261Z" fill="#0E100A"/>
</svg>
